<?xml version="1.0" standalone="no"?>
<!DOCTYPE svg PUBLIC "-//W3C//DTD SVG 20010904//EN"
 "http://www.w3.org/TR/2001/REC-SVG-20010904/DTD/svg10.dtd">
<svg version="1.0" xmlns="http://www.w3.org/2000/svg"
 width="400.000000pt" height="300.000000pt" viewBox="0 0 400.000000 300.000000"
 preserveAspectRatio="xMidYMid meet">

<g transform="translate(0.000000,300.000000) scale(0.100000,-0.100000)"
fill="#000000" stroke="none">
<path d="M1179 2423 c-3 -22 8 -151 72 -857 38 -423 69 -777 69 -786 0 -18 -6
-16 520 -162 l155 -44 210 59 c116 32 266 73 334 92 68 19 126 36 128 39 3 3
14 101 24 218 95 1054 129 1432 129 1440 0 10 -1640 11 -1641 1z m1280 -322
l64 -6 1 -72 c1 -39 -2 -69 -7 -66 -4 2 -6 -8 -5 -24 1 -16 -1 -34 -6 -41 -5
-9 -102 -12 -401 -12 l-393 0 5 -77 c3 -43 10 -88 14 -100 l9 -23 370 0 370 0
1 -32 c1 -18 1 -37 0 -41 -1 -5 -3 -32 -5 -62 -2 -30 -6 -58 -9 -62 -3 -5 -4
-46 -2 -91 2 -45 -1 -82 -5 -82 -5 0 -9 -15 -10 -32 -1 -34 -9 -160 -14 -213
-2 -26 -8 -31 -44 -40 -22 -6 -44 -13 -47 -17 -4 -4 -13 -4 -21 -1 -8 3 -14 0
-14 -6 0 -6 -7 -8 -15 -5 -8 4 -15 1 -15 -6 0 -6 -3 -9 -8 -6 -15 9 -77 -11
-74 -24 2 -10 0 -11 -10 -3 -16 12 -161 -25 -152 -39 7 -11 7 -11 -261 62
l-210 57 -12 139 c-6 76 -12 151 -12 167 l-1 27 110 0 110 0 1 -57 c2 -99 4
-102 94 -129 112 -32 160 -40 150 -24 -5 9 -4 11 3 6 14 -8 84 3 78 13 -3 4
12 7 31 7 20 0 38 5 40 11 2 5 15 8 28 5 19 -3 25 1 31 22 3 15 4 35 1 46 -3
11 -1 22 4 25 5 4 9 16 9 28 0 12 1 47 3 77 l2 55 -352 3 -352 2 -5 43 c-4 23
-15 146 -26 272 -11 127 -22 249 -26 273 l-5 42 258 1 c142 1 283 4 313 9 67
9 331 10 419 1z"/>
</g>
</svg>
