<svg xmlns="http://www.w3.org/2000/svg" version="1.1" viewBox="0 0 800 800"><g fill="none" stroke-width="6" stroke="hsl(25, 100%, 50%)" stroke-linecap="round"><path d="M89.36 789.78C330.66 818.78 570.61 845.02 541.62 755.54 512.62 586.56 225.66 397.89 -15.63 368.89 -21.61 339.9 177.99 481.56 206.99 650.54 235.98 740.02 83.38 760.79 89.36 789.78Q89.36 789.78 89.36 789.78" opacity="0.52"></path><path d="M81.91 798.29C279.05 823.14 483.8 830.78 458.95 748.05 434.09 606.54 189.05 447.27 -8.08 422.42 -29.72 397.56 111.96 516.54 136.82 658.05 161.67 740.78 60.27 773.43 81.91 798.29Q81.91 798.29 81.91 798.29" opacity="0.78"></path><path d="M74.41 799.65C229.76 820.36 394.18 814.42 373.47 740.55 352.75 625.63 154.76 496.26 -0.58 475.55 -32.45 454.83 58.06 550.63 78.78 665.55 99.49 739.42 42.54 778.93 74.41 799.65Q74.41 799.65 74.41 799.65" opacity="0.96"></path><path d="M66.91 793.86C183.28 810.42 305.76 795.98 289.2 733.05 272.63 643.75 123.28 543.88 6.91 527.32 -29.67 510.75 18.87 583.75 35.44 673.05 52 735.98 30.32 777.29 66.91 793.86Q66.91 793.86 66.91 793.86" opacity="0.45"></path><path d="M59.41 781.01C140.35 793.43 222.42 775.55 210 725.55 197.57 660.64 95.35 589.24 14.41 576.82 -21.28 564.39 -3.65 615.64 8.77 680.55 21.19 730.55 23.71 768.58 59.41 781.01Q59.41 781.01 59.41 781.01" opacity="0.23"></path><path d="M51.91 761.34C101.36 769.62 147.78 753.2 139.5 718.05 131.21 676.22 71.36 631.42 21.91 623.14 -7.33 614.85 -8.28 646.22 0 688.05 8.28 723.2 22.66 753.05 51.91 761.34Q51.91 761.34 51.91 761.34" opacity="0.32"></path></g></svg>