<svg  version="1.1"  viewBox="0 0 800 800"><g fill="none" stroke-width="5" stroke="hsl(25, 100%, 50%)" stroke-linecap="round"><path d="M134.38 313.5C49.62 330.06 16.74 540.47 0.18 741.61 -16.38 829.18 -10.37 779.56 74.38 763 211.74 746.43 358.48 769.18 375.05 681.61 391.61 480.47 271.74 296.93 134.38 313.5Q134.38 313.5 134.38 313.5" opacity="0.35"></path><path d="M126.88 423.91C57.37 436.33 17.67 590.39 5.25 734.11 -7.17 813.09 12.37 807.58 81.88 795.16 181.21 782.73 286.78 768.09 299.21 689.11 311.63 545.39 226.21 411.48 126.88 423.91Q126.88 423.91 126.88 423.91" opacity="0.88"></path><path d="M119.38 532.48C69.24 540.76 33.15 636.37 24.87 726.61 16.58 787.84 39.24 805.3 89.38 797.02 152.88 788.73 218.79 757.84 227.08 696.61 235.36 606.37 182.88 524.19 119.38 532.48Q119.38 532.48 119.38 532.48" opacity="0.36"></path></g></svg>