<svg version="1.1" xmlns="http://www.w3.org/2000/svg" xmlns:xlink="http://www.w3.org/1999/xlink" width="1560" height="804"><defs/><g><path fill="none" stroke="#F97316" paint-order="fill stroke markers" d=" M 20 425.04883666259974 L 21 426.198256912656 L 22 427.3472352345202 L 23 428.49575064461845 L 24 429.6437821678308 L 25 430.7913088378747 L 26 431.9383096976873 L 27 433.0847637998088 L 28 434.23065020676466 L 29 435.37594799144796 L 30 436.5206362375018 L 31 437.66469403970103 L 32 438.80810050433433 L 33 439.9508347495855 L 34 441.0928759059151 L 35 442.23420311644134 L 36 443.374795537321 L 37 444.5146323381304 L 38 445.65369270224545 L 39 446.79195582722207 L 40 447.9294009251759 L 41 449.06600722316216 L 42 450.20175396355484 L 43 451.33662040442596 L 44 452.4705858199241 L 45 453.6036295006533 L 46 454.735730754051 L 47 455.866868904766 L 48 456.997023295036 L 49 458.126173285065 L 50 459.25429825340024 L 51 460.3813775973086 L 52 461.507390733153 L 53 462.6323170967685 L 54 463.75613614383747 L 55 464.87882735026517 L 56 466.0003702125542 L 57 467.1207442481792 L 58 468.2399289959611 L 59 469.3579040164404 L 60 470.47464889225046 L 61 471.59014322849083 L 62 472.7043666530992 L 63 473.8172988172239 L 64 474.928919395595 L 65 476.0392080868962 L 66 477.1481446141348 L 67 478.2557087250128 L 68 479.36188019229604 L 69 480.4666388141842 L 70 481.56996441467936 L 71 482.67183684395457 L 72 483.77223597872205 L 73 484.8711417226002 L 74 485.9685340064814 L 75 487.0643927888975 L 76 488.158698056387 L 77 489.25142982385944 L 78 490.3425681349611 L 79 491.4320930624393 L 80 492.5199847085063 L 81 493.60622320520247 L 82 494.69078871475955 L 83 495.77366142996266 L 84 496.85482157451196 L 85 497.93424940338423 L 86 499.01192520319296 L 87 500.0878292925488 L 88 501.16194202241866 L 89 502.23424377648485 L 90 503.304714971503 L 91 504.3733360576602 L 92 505.4400875189314 L 93 506.5049498734364 L 94 507.5679036737952 L 95 508.62892950748346 L 96 509.688007997187 L 97 510.7451198011555 L 98 511.800245613556 L 99 512.853366164825 L 100 513.9044622220213 L 101 514.9535145891759 L 102 516.0005041076439 L 103 517.0454116564537 L 104 518.088218152656 L 105 519.128904551673 L 106 520.1674518476459 L 107 521.2038410737814 L 108 522.2380533026991 L 109 523.2700696467766 L 110 524.2998712584945 L 111 525.3274393307805 L 112 526.3527550973531 L 113 527.3757998330645 L 114 528.3965548542418 L 115 529.4150015190291 L 116 530.4311212277275 L 117 531.4448954231348 L 118 532.4563055908845 L 119 533.4653332597838 L 120 534.4719600021511 L 121 535.4761674341528 L 122 536.4779372161379 L 123 537.4772510529745 L 124 538.4740906943829 L 125 539.468437935269 L 126 540.4602746160572 L 127 541.4495826230217 L 128 542.4363438886173 L 129 543.4205403918095 L 130 544.4021541584037 L 131 545.3811672613731 L 132 546.3575618211866 L 133 547.3313200061348 L 134 548.302424032656 L 135 549.2708561656609 L 136 550.2365987188567 L 137 551.1996340550696 L 138 552.1599445865672 L 139 553.1175127753799 L 140 554.0723211336207 L 141 555.0243522238052 L 142 555.9735886591693 L 143 556.9200131039879 L 144 557.8636082738897 L 145 558.8043569361748 L 146 559.7422419101282 L 147 560.6772460673337 L 148 561.6093523319872 L 149 562.5385436812082 L 150 563.4648031453509 L 151 564.3881138083135 L 152 565.308458807848 L 153 566.2258213358675 L 154 567.1401846387538 L 155 568.0515320176626 L 156 568.959846828829 L 157 569.8651124838713 L 158 570.7673124500939 L 159 571.6664302507893 L 160 572.5624494655392 L 161 573.455353730514 L 162 574.3451267387719 L 163 575.2317522405566 L 164 576.1152140435942 L 165 576.9954960133887 L 166 577.8725820735168 L 167 578.7464562059217 L 168 579.6171024512054 L 169 580.4845049089199 L 170 581.3486477378581 L 171 582.209515156343 L 172 583.0670914425154 L 173 583.9213609346219 L 174 584.7723080313003 L 175 585.6199171918644 L 176 586.4641729365883 L 177 587.3050598469891 L 178 588.142562566108 L 179 588.9766657987913 L 180 589.807354311969 L 181 590.634612934934 L 182 591.4584265596185 L 183 592.2787801408699 L 184 593.0956586967258 L 185 593.9090473086875 L 186 594.7189311219927 L 187 595.5252953458862 L 188 596.3281252538907 L 189 597.1274061840752 L 190 597.9231235393235 L 191 598.7152627875995 L 192 599.5038094622141 L 193 600.2887491620885 L 194 601.0700675520171 L 195 601.84775036293 L 196 602.621783392153 L 197 603.392152503667 L 198 604.1588436283669 L 199 604.9218427643173 L 200 605.6811359770093 L 201 606.4367093996143 L 202 607.1885492332381 L 203 607.9366417471716 L 204 608.6809732791428 L 205 609.4215302355656 L 206 610.1582990917881 L 207 610.8912663923401 L 208 611.6204187511784 L 209 612.345742851931 L 210 613.0672254481414 L 211 613.784853363509 L 212 614.4986134921307 L 213 615.2084927987406 L 214 615.9144783189469 L 215 616.6165571594694 L 216 617.314716498375 L 217 618.0089435853117 L 218 618.6992257417414 L 219 619.3855503611716 L 220 620.0679049093854 L 221 620.7462769246708 L 222 621.4206540180478 L 223 622.091023873495 L 224 622.7573742481746 L 225 623.4196929726555 L 226 624.0779679511361 L 227 624.7321871616649 L 228 625.38233865636 L 229 626.0284105616278 L 230 626.6703910783789 L 231 627.3082684822446 L 232 627.9420311237906 L 233 628.5716674287294 L 234 629.1971658981321 L 235 629.8185151086385 L 236 630.4357037126655 L 237 631.048720438614 L 238 631.6575540910759 L 239 632.2621935510368 L 240 632.8626277760807 L 241 633.4588458005909 L 242 634.0508367359503 L 243 634.6385897707403 L 244 635.2220941709384 L 245 635.8013392801138 L 246 636.3763145196228 L 247 636.9470093888012 L 248 637.5134134651565 L 249 638.0755164045581 L 250 638.6333079414264 L 251 639.1867778889198 L 252 639.7359161391212 L 253 640.2807126632227 L 254 640.8211575117084 L 255 641.357240814536 L 256 641.8889527813177 L 257 642.4162837014981 L 258 642.9392239445325 L 259 643.4577639600619 L 260 643.9718942780883 L 261 644.4816055091464 L 262 644.9868883444768 L 263 645.4877335561944 L 264 645.9841319974578 L 265 646.476074602636 L 266 646.9635523874742 L 267 647.446556449258 L 268 647.9250779669752 L 269 648.3991082014779 L 270 648.8686384956416 L 271 649.3336602745231 L 272 649.7941650455177 L 273 650.2501443985138 L 274 650.7015900060468 L 275 651.1484936234506 L 276 651.590847089009 L 277 652.0286423241043 L 278 652.461871333365 L 279 652.8905262048115 L 280 653.3145991100009 L 281 653.7340823041699 L 282 654.1489681263761 L 283 654.5592489996384 L 284 654.9649174310745 L 285 655.3659660120386 L 286 655.7623874182564 L 287 656.1541744099586 L 288 656.5413198320133 L 289 656.923816614057 L 290 657.3016577706233 L 291 657.6748364012703 L 292 658.0433456907076 L 293 658.4071789089195 L 294 658.7663294112887 L 295 659.1207906387174 L 296 659.4705561177473 L 297 659.8156194606775 L 298 660.1559743656815 L 299 660.4916146169219 L 300 660.8225340846643 L 301 661.148726725389 L 302 661.4701865819014 L 303 661.7869077834409 L 304 662.0988845457882 L 305 662.4061111713706 L 306 662.7085820493662 L 307 663.0062916558066 L 308 663.2992345536776 L 309 663.5874053930183 L 310 663.8707989110192 L 311 664.149409932118 L 312 664.4232333680944 L 313 664.6922642181627 L 314 664.9564975690632 L 315 665.2159285951523 L 316 665.4705525584902 L 317 665.7203648089276 L 318 665.9653607841905 L 319 666.2055360099637 L 320 666.4408860999725 L 321 666.6714067560629 L 322 666.8970937682793 L 323 667.1179430149427 L 324 667.3339504627252 L 325 667.5451121667234 L 326 667.7514242705311 L 327 667.9528830063091 L 328 668.149484694855 L 329 668.3412257456691 L 330 668.5281026570208 L 331 668.7101120160124 L 332 668.8872504986415 L 333 669.0595148698615 L 334 669.2269019836403 L 335 669.3894087830193 L 336 669.5470323001673 L 337 669.6997696564356 L 338 669.8476180624111 L 339 669.9905748179659 L 340 670.1286373123081 L 341 670.2618030240284 L 342 670.3900695211464 L 343 670.5134344611556 L 344 670.6318955910652 L 345 670.7454507474421 L 346 670.8540978564498 L 347 670.9578349338869 L 348 671.0566600852226 L 349 671.1505715056317 L 350 671.239567480028 L 351 671.3236463830947 L 352 671.4028066793146 L 353 671.4770469229984 L 354 671.5463657583103 L 355 671.6107619192937 L 356 671.6702342298936 L 357 671.7247816039785 L 358 671.7744030453598 L 359 671.8190976478108 L 360 671.8588645950822 L 361 671.893703160918 L 362 671.9236127090678 L 363 671.9485926932991 L 364 671.9686426574076 L 365 671.9837622352243 L 366 671.9939511506232 L 367 671.9992092175262 L 368 671.999536339906 L 369 671.9949325117886 L 370 671.9853978172528 L 371 671.970932430429 L 372 671.9515366154957 L 373 671.927210726675 L 374 671.8979552082261 L 375 671.863770594437 L 376 671.8246575096148 L 377 671.7806166680743 L 378 671.7316488741252 L 379 671.677755022057 L 380 671.618936096123 L 381 671.555193170522 L 382 671.486527409379 L 383 671.4129400667241 L 384 671.3344324864686 L 385 671.251006102382 L 386 671.1626624380642 L 387 671.0694031069193 L 388 670.9712298121244 L 389 670.8681443466 L 390 670.7601485929765 L 391 670.64724452356 L 392 670.529434200296 L 393 670.4067197747322 L 394 670.2791034879792 L 395 670.1465876706689 L 396 670.0091747429125 L 397 669.8668672142567 L 398 669.7196676836365 L 399 669.5675788393296 L 400 669.4106034589056 L 401 669.2487444091762 L 402 669.0820046461427 L 403 668.9103872149416 L 404 668.73389524979 L 405 668.552531973927 L 406 668.366300699556 L 407 668.1752048277835 L 408 667.9792478485574 L 409 667.7784333406028 L 410 667.5727649713572 L 411 667.362246496903 L 412 667.1468817618995 L 413 666.926674699512 L 414 666.7016293313407 L 415 666.4717497673463 L 416 666.237040205776 L 417 665.9975049330861 L 418 665.7531483238643 L 419 665.5039748407486 L 420 665.2499890343477 L 421 664.9911955431561 L 422 664.7275990934706 L 423 664.4592044993033 L 424 664.1860166622938 L 425 663.9080405716201 L 426 663.6252813039068 L 427 663.3377440231333 L 428 663.0454339805383 L 429 662.7483565145249 L 430 662.4465170505629 L 431 662.1399211010892 L 432 661.8285742654076 L 433 661.5124822295867 L 434 661.1916507663555 L 435 660.8660857349984 L 436 660.535793081248 L 437 660.2007788371768 L 438 659.8610491210862 L 439 659.5166101373961 L 440 659.1674681765306 L 441 658.8136296148032 L 442 658.4551009143006 L 443 658.0918886227649 L 444 657.7239993734734 L 445 657.3514398851179 L 446 656.9742169616819 L 447 656.5923374923165 L 448 656.2058084512141 L 449 655.8146368974816 L 450 655.418829975011 L 451 655.0183949123497 L 452 654.6133390225671 L 453 654.2036697031226 L 454 653.7893944357295 L 455 653.3705207862187 L 456 652.9470564044004 L 457 652.5190090239248 L 458 652.0863864621401 L 459 651.6491966199504 L 460 651.2074474816711 L 461 650.7611471148834 L 462 650.3103036702863 L 463 649.8549253815487 L 464 649.3950205651579 L 465 648.9305976202688 L 466 648.46166502855 L 467 647.9882313540285 L 468 647.510305242934 L 469 647.027895423541 L 470 646.5410107060087 L 471 646.0496599822208 L 472 645.5538522256223 L 473 645.0535964910571 L 474 644.5489019146006 L 475 644.0397777133948 L 476 643.5262331854785 L 477 643.0082777096187 L 478 642.485920745138 L 479 641.9591718317431 L 480 641.4280405893497 L 481 640.8925367179074 L 482 640.3526699972222 L 483 639.8084502867779 L 484 639.2598875255562 L 485 638.7069917318552 L 486 638.1497730031062 L 487 637.5882415156896 L 488 637.0224075247487 L 489 636.4522813640028 L 490 635.8778734455582 L 491 635.2991942597181 L 492 634.7162543747911 L 493 634.1290644368983 L 494 633.5376351697782 L 495 632.941977374592 L 496 632.3421019297255 L 497 631.7380197905902 L 498 631.1297419894242 L 499 630.5172796350901 L 500 629.900643912872 L 501 629.2798460842716 L 502 628.6548974868024 L 503 628.0258095337822 L 504 627.3925937141257 L 505 626.7552615921335 L 506 626.1138248072818 L 507 625.4682950740093 L 508 624.8186841815036 L 509 624.1650039934856 L 510 623.5072664479928 L 511 622.845483557162 L 512 622.1796674070088 L 513 621.509830157208 L 514 620.8359840408702 L 515 620.15814136432 L 516 619.4763145068702 L 517 618.7905159205955 L 518 618.100758130106 L 519 617.4070537323178 L 520 616.7094153962232 L 521 616.0078558626594 L 522 615.3023879440753 L 523 614.5930245242985 L 524 613.8797785582988 L 525 613.1626630719524 L 526 612.441691161804 L 527 611.7168759948273 L 528 610.9882308081847 L 529 610.2557689089856 L 530 609.519503674043 L 531 608.7794485496299 L 532 608.0356170512332 L 533 607.2880227633067 L 534 606.5366793390239 L 535 605.7816005000274 L 536 605.0228000361795 L 537 604.2602918053097 L 538 603.4940897329616 L 539 602.7242078121388 L 540 601.9506601030494 L 541 601.1734607328489 L 542 600.3926238953824 L 543 599.6081638509257 L 544 598.8200949259242 L 545 598.0284315127318 L 546 597.2331880693476 L 547 596.4343791191525 L 548 595.6320192506432 L 549 594.8261231171664 L 550 594.0167054366507 L 551 593.2037809913385 L 552 592.3873646275151 L 553 591.5674712552382 L 554 590.7441158480656 L 555 589.9173134427814 L 556 589.0870791391217 L 557 588.2534280994985 L 558 587.4163755487234 L 559 586.5759367737287 L 560 585.732127123289 L 561 584.8849620077406 L 562 584.0344568986995 L 563 583.18062732878 L 564 582.3234888913103 L 565 581.4630572400472 L 566 580.5993480888917 L 567 579.7323772116007 L 568 578.8621604414993 L 569 577.988713671192 L 570 577.1120528522722 L 571 576.2321939950305 L 572 575.349153168163 L 573 574.4629464984773 L 574 573.5735901705984 L 575 572.6811004266731 L 576 571.7854935660723 L 577 570.8867859450953 L 578 569.9849939766693 L 579 569.0801341300505 L 580 568.1722229305235 L 581 567.2612769590986 L 582 566.3473128522102 L 583 565.4303473014118 L 584 564.510397053072 L 585 563.5874789080683 L 586 562.6616097214803 L 587 561.732806402282 L 588 560.8010859130329 L 589 559.8664652695682 L 590 558.9289615406879 L 591 557.9885918478454 L 592 557.0453733648349 L 593 556.0993233174769 L 594 555.1504589833048 L 595 554.1987976912487 L 596 553.2443568213188 L 597 552.2871538042882 L 598 551.3272061213747 L 599 550.3645313039215 L 600 549.3991469330765 L 601 548.4310706394725 L 602 547.4603201029036 L 603 546.4869130520033 L 604 545.5108672639207 L 605 544.5322005639954 L 606 543.5509308254325 L 607 542.5670759689757 L 608 541.5806539625802 L 609 540.5916828210848 L 610 539.6001806058824 L 611 538.6061654245907 L 612 537.6096554307207 L 613 536.6106688233465 L 614 535.6092238467716 L 615 534.605338790196 L 616 533.5990319873831 L 617 532.5903218163236 L 618 531.5792266989008 L 619 530.5657651005536 L 620 529.5499555299398 L 621 528.5318165385975 L 622 527.5113667206065 L 623 526.488624712249 L 624 525.4636091916692 L 625 524.4363388785316 L 626 523.4068325336799 L 627 522.3751089587937 L 628 521.3411869960457 L 629 520.3050855277572 L 630 519.2668234760537 L 631 518.2264198025186 L 632 517.1838935078476 L 633 516.1392636315015 L 634 515.092549251358 L 635 514.0437694833643 L 636 512.9929434811867 L 637 511.9400904358621 L 638 510.88522957544654 L 639 509.8283801646646 L 640 508.7695615045574 L 641 507.7087929321297 L 642 506.6460938199977 L 643 505.5814835760343 L 644 504.5149816430152 L 645 503.4466074982636 L 646 502.3763806532945 L 647 501.30432065345855 L 648 500.2304470775849 L 649 499.15477953762365 L 650 498.07733767828773 L 651 496.9981411766942 L 652 495.9172097420048 L 653 494.834563115066 L 654 493.75022106804846 L 655 492.66420340408604 L 656 491.5765299569141 L 657 490.48722059050715 L 658 489.3962951987163 L 659 488.30377370490567 L 660 487.209676061589 L 661 486.1140222500646 L 662 485.01683228005095 L 663 483.91812618932113 L 664 482.81792404333675 L 665 481.71624593488167 L 666 480.6131119836949 L 667 479.50854233610335 L 668 478.4025571646537 L 669 477.295176667744 L 670 476.186421069255 L 671 475.0763106181807 L 672 473.96486558825825 L 673 472.85210627759835 L 674 471.73805300831384 L 675 470.622726126149 L 676 469.50614600010795 L 677 468.38833302208235 L 678 467.2693076064794 L 679 466.14909018984883 L 680 465.0277012305094 L 681 463.90516120817585 L 682 462.7814906235844 L 683 461.65670999811846 L 684 460.5308398734341 L 685 459.40390081108455 L 686 458.2759133921449 L 687 457.1468982168361 L 688 456.0168759041489 L 689 454.8858670914674 L 690 453.7538924341915 L 691 452.62097260536063 L 692 451.48712829527534 L 693 450.35238021112 L 694 449.21674907658434 L 695 448.08025563148516 L 696 446.9429206313874 L 697 445.80476484722516 L 698 444.6658090649225 L 699 443.5260740850134 L 700 442.3855807222626 L 701 441.2443498052847 L 702 440.10240217616416 L 703 438.95975869007475 L 704 437.8164402148985 L 705 436.6724676308445 L 706 435.527861830068 L 707 434.3826437162882 L 708 433.23683420440716 L 709 432.0904542201274 L 710 430.9435246995699 L 711 429.7960665888916 L 712 428.64810084390325 L 713 427.4996484296861 L 714 426.3507303202096 L 715 425.201367497948 L 716 424.0515809534973 L 717 422.9013916851917 L 718 421.75082069872064 L 719 420.5998890067444 L 720 419.44861762851093 L 721 418.29702758947184 L 722 417.1451399208983 L 723 415.9929756594972 L 724 414.84055584702645 L 725 413.6879015299114 L 726 412.53503375886 L 727 411.3819735884783 L 728 410.2287420768863 L 729 409.0753602853332 L 730 407.9218492778126 L 731 406.7682301206779 L 732 405.61452388225786 L 733 404.4607516324714 L 734 403.3069344424429 L 735 402.15309338411777 L 736 400.9992495298771 L 737 399.8454239521531 L 738 398.6916377230442 L 739 397.53791191393026 L 740 396.3842675950876 L 741 395.2307258353043 L 742 394.07730770149567 L 743 392.9240342583189 L 744 391.77092656778893 L 745 390.61800568889356 L 746 389.4652926772088 L 747 388.3128085845147 L 748 387.1605744584103 L 749 386.00861134192957 L 750 384.85694027315725 L 751 383.7055822848444 L 752 382.5545584040243 L 753 381.4038896516285 L 754 380.25359704210297 L 755 379.10370158302413 L 756 377.9542242747155 L 757 376.8051861098638 L 758 375.65660807313594 L 759 374.5085111407954 L 760 373.36091628031954 L 761 372.2138444500163 L 762 371.06731659864175 L 763 369.9213536650173 L 764 368.7759765776474 L 765 367.6312062543373 L 766 366.4870636018111 L 767 365.34356951532965 L 768 364.2007448783094 L 769 363.0586105619407 L 770 361.9171874248067 L 771 360.7764963125023 L 772 359.63655805725375 L 773 358.4973934775379 L 774 357.3590233777022 L 775 356.2214685475846 L 776 355.0847497621338 L 777 353.94888778103035 L 778 352.8139033483068 L 779 351.6798171919693 L 780 350.54665002361895 L 781 349.4144225380736 L 782 348.2831554129898 L 783 347.1528693084852 L 784 346.02358486676127 L 785 344.89532271172635 L 786 343.76810344861894 L 787 342.6419476636313 L 788 341.5168759235337 L 789 340.3929087752987 L 790 339.2700667457258 L 791 338.1483703410668 L 792 337.02784004665114 L 793 335.9084963265118 L 794 334.79035962301145 L 795 333.6734503564695 L 796 332.55778892478867 L 797 331.44339570308284 L 798 330.3302910433048 L 799 329.2184952738745 L 800 328.10802869930797 L 801 326.99891159984634 L 802 325.89116423108555 L 803 324.7848068236064 L 804 323.67985958260516 L 805 322.5763426875243 L 806 321.4742762916845 L 807 320.37368052191584 L 808 319.274575478191 L 809 318.17698123325755 L 810 317.0809178322717 L 811 315.9864052924322 L 812 314.8934636026147 L 813 313.8021127230067 L 814 312.712372584743 L 815 311.62426308954167 L 816 310.53780410934087 L 817 309.4530154859356 L 818 308.3699170306154 L 819 307.28852852380265 L 820 306.2088697146912 L 821 305.1309603208859 L 822 304.0548200280422 L 823 302.98046848950685 L 824 301.9079253259589 L 825 300.8372101250515 L 826 299.76834244105396 L 827 298.70134179449474 L 828 297.63622767180493 L 829 296.57301952496243 L 830 295.5117367711367 L 831 294.4523987923341 L 832 293.3950249350438 L 833 292.33963450988483 L 834 291.2862467912528 L 835 290.23488101696876 L 836 289.185556387927 L 837 288.13829206774494 L 838 287.0931071824129 L 839 286.0500208199448 L 840 285.0090520300298 L 841 283.97021982368403 L 842 282.9335431729039 L 843 281.89904101031897 L 844 280.86673222884673 L 845 279.8366356813474 L 846 278.80877018027945 L 847 277.7831544973563 L 848 276.7598073632032 L 849 275.73874746701557 L 850 274.7199934562172 L 851 273.7035639361201 L 852 272.6894774695843 L 853 271.6777525766795 L 854 270.66840773434603 L 855 269.66146137605796 L 856 268.65693189148635 L 857 267.65483762616327 L 858 266.65519688114694 L 859 265.6580279126872 L 860 264.66334893189264 L 861 263.6711781043973 L 862 262.6815335500295 L 863 261.6944333424806 L 864 260.7098955089753 L 865 259.72793802994187 L 866 258.7485788386841 L 867 257.7718358210539 L 868 256.79772681512424 L 869 255.82626961086382 L 870 254.85748194981198 L 871 253.8913815247546 L 872 252.92798597940114 L 873 251.96731290806235 L 874 251.00937985532897 L 875 250.05420431575124 L 876 249.10180373351955 L 877 248.15219550214562 L 878 247.20539696414517 L 879 246.26142541072088 L 880 245.32029808144685 L 881 244.38203216395357 L 882 243.44664479361415 L 883 242.51415305323133 L 884 241.58457397272554 L 885 240.65792452882377 L 886 239.73422164474962 L 887 238.81348218991442 L 888 237.89572297960862 L 889 236.98096077469532 L 890 236.06921228130372 L 891 235.16049415052424 L 892 234.2548229781043 L 893 233.35221530414526 L 894 232.45268761280062 L 895 231.55625633197457 L 896 230.66293783302203 L 897 229.77274843044998 L 898 228.8857043816192 L 899 228.0018218864475 L 900 227.12111708711376 L 901 226.2436060677633 L 902 225.369304854214 L 903 224.49822941366367 L 904 223.6303956543984 L 905 222.76581942550214 L 906 221.90451651656713 L 907 221.04650265740554 L 908 220.1917935177624 L 909 219.34040470702908 L 910 218.49235177395855 L 911 217.6476502063812 L 912 216.8063154309221 L 913 215.96836281271925 L 914 215.1338076551429 L 915 214.30266519951616 L 916 213.4749506248366 L 917 212.65067904749904 L 918 211.8298655210195 L 919 211.01252503576026 L 920 210.19867251865608 L 921 209.3883228329417 L 922 208.58149077788013 L 923 207.7781910884929 L 924 206.9784384352903 L 925 206.18224742400378 L 926 205.3896325953194 L 927 204.60060842461192 L 928 203.81518932168063 L 929 203.03338963048614 L 930 202.25522362888842 L 931 201.4807055283861 L 932 200.70984947385688 L 933 199.94266954329908 L 934 199.1791797475748 L 935 198.41939403015394 L 936 197.66332626685937 L 937 196.91099026561378 L 938 196.1623997661873 L 939 195.41756843994676 L 940 194.67650988960585 L 941 193.93923764897687 L 942 193.20576518272335 L 943 192.4761058861143 L 944 191.75027308477954 L 945 191.02828003446632 L 946 190.31013992079727 L 947 189.59586585902952 L 948 188.88547089381524 L 949 188.1789679989634 L 950 187.47637007720286 L 951 186.77768995994666 L 952 186.08294040705772 L 953 185.39213410661574 L 954 184.7052836746857 L 955 184.02240165508712 L 956 183.3435005191653 L 957 182.66859266556338 L 958 181.99769041999588 L 959 181.33080603502373 L 960 180.66795168983037 L 961 180.0091394899994 L 962 179.35438146729356 L 963 178.7036895794348 L 964 178.0570757098861 L 965 177.41455166763433 L 966 176.7761291869745 L 967 176.14181992729596 L 968 175.51163547286868 L 969 174.88558733263227 L 970 174.26368693998555 L 971 173.64594565257784 L 972 173.0323747521015 L 973 172.42298544408595 L 974 171.81778885769288 L 975 171.2167960455132 L 976 170.62001798336502 L 977 170.0274655700933 L 978 169.43914962737074 L 979 168.8550808995002 L 980 168.2752700532185 L 981 167.69972767750147 L 982 167.12846428337076 L 983 166.56149030370176 L 984 165.9988160930331 L 985 165.4404519273775 L 986 164.88640800403422 L 987 164.33669444140267 L 988 163.7913212787977 L 989 163.2502984762664 L 990 162.7136359144059 L 991 162.18134339418313 L 992 161.65343063675573 L 993 161.12990728329464 L 994 160.61078289480793 L 995 160.09606695196615 L 996 159.5857688549293 L 997 159.07989792317505 L 998 158.57846339532858 L 999 158.08147442899397 L 1000 157.58894010058668 L 1001 157.10086940516814 L 1002 156.61727125628113 L 1003 156.1381544857873 L 1004 155.66352784370562 L 1005 155.19339999805274 L 1006 154.72777953468466 L 1007 154.26667495713994 L 1008 153.81009468648423 L 1009 153.35804706115673 L 1010 152.91054033681783 L 1011 152.4675826861982 L 1012 152.02918219894974 L 1013 151.59534688149762 L 1014 151.1660846568943 L 1015 150.74140336467457 L 1016 150.32131076071263 L 1017 149.9058145170804 L 1018 149.49492222190707 L 1019 149.0886413792411 L 1020 148.68697940891263 L 1021 148.28994364639837 L 1022 147.89754134268736 L 1023 147.50977966414874 L 1024 147.1266656924006 L 1025 146.74820642418126 L 1026 146.37440877122066 L 1027 146.00527956011464 L 1028 145.64082553220027 L 1029 145.28105334343257 L 1030 144.92596956426297 L 1031 144.57558067951942 L 1032 144.22989308828795 L 1033 143.8889131037957 L 1034 143.5526469532956 L 1035 143.22110077795287 L 1036 142.89428063273255 L 1037 142.57219248628928 L 1038 142.25484222085794 L 1039 141.9422356321465 L 1040 141.6343784292299 L 1041 141.33127623444608 L 1042 141.03293458329324 L 1043 140.73935892432837 L 1044 140.45055461906844 L 1045 140.16652694189173 L 1046 139.8872810799421 L 1047 139.61282213303394 L 1048 139.34315511355913 L 1049 139.0782849463954 L 1050 138.81821646881662 L 1051 138.56295443040426 L 1052 138.31250349296062 L 1053 138.06686823042378 L 1054 137.82605312878422 L 1055 137.5900625860026 L 1056 137.3589009119296 L 1057 137.13257232822713 L 1058 136.9110809682913 L 1059 136.69443087717707 L 1060 136.48262601152408 L 1061 136.27567023948444 L 1062 136.0735673406524 L 1063 135.876321005995 L 1064 135.6839348377847 L 1065 135.49641234953384 L 1066 135.31375696593005 L 1067 135.13597202277413 L 1068 134.96306076691894 L 1069 134.79502635620997 L 1070 134.63187185942797 L 1071 134.4736002562326 L 1072 134.32021443710835 L 1073 134.17171720331135 L 1074 134.02811126681854 L 1075 133.88939925027802 L 1076 133.75558368696113 L 1077 133.62666702071613 L 1078 133.50265160592375 L 1079 133.38353970745413 L 1080 133.26933350062535 L 1081 133.16003507116375 L 1082 133.05564641516582 L 1083 132.95616943906202 L 1084 132.86160595958142 L 1085 132.771957703719 L 1086 132.687226308704 L 1087 132.60741332196972 L 1088 132.5325202011258 L 1089 132.46254831393105 L 1090 132.39749893826882 L 1091 132.33737326212366 L 1092 132.28217238355938 L 1093 132.23189731069908 L 1094 132.18654896170705 L 1095 132.1461281647716 L 1096 132.11063565809002 L 1097 132.08007208985538 L 1098 132.05443801824418 L 1099 132.03373391140684 L 1100 132.01796014745838 L 1101 132.0071170144721 L 1102 132.0012047104741 L 1103 132.0002233434397 L 1104 132.00417293129135 L 1105 132.01305340189862 L 1106 132.02686459307898 L 1107 132.04560625260137 L 1108 132.06927803819036 L 1109 132.0978795175326 L 1110 132.13141016828473 L 1111 132.1698693780827 L 1112 132.2132564445534 L 1113 132.26157057532686 L 1114 132.3148108880514 L 1115 132.37297641040908 L 1116 132.43606608013414 L 1117 132.50407874503173 L 1118 132.5770131629995 L 1119 132.65486800204985 L 1120 132.73764184033467 L 1121 132.825333166171 L 1122 132.9179403780687 L 1123 133.01546178475974 L 1124 133.11789560522914 L 1125 133.22523996874736 L 1126 133.3374929149046 L 1127 133.45465239364654 L 1128 133.57671626531175 L 1129 133.70368230067083 L 1130 133.835548180967 L 1131 133.97231149795874 L 1132 134.11396975396337 L 1133 134.26052036190288 L 1134 134.41196064535131 L 1135 134.5682878385834 L 1136 134.72949908662508 L 1137 134.89559144530585 L 1138 135.0665618813124 L 1139 135.2424072722439 L 1140 135.42312440666922 L 1141 135.60870998418557 L 1142 135.7991606154785 L 1143 135.99447282238424 L 1144 136.1946430379528 L 1145 136.39966760651345 L 1146 136.60954278374118 L 1147 136.8242647367253 L 1148 137.0438295440394 L 1149 137.2682331958129 L 1150 137.49747159380428 L 1151 137.7315405514761 L 1152 137.97043579407114 L 1153 138.21415295869082 L 1154 138.46268759437453 L 1155 138.71603516218124 L 1156 138.97419103527227 L 1157 139.23715049899567 L 1158 139.5049087509724 L 1159 139.77746090118416 L 1160 140.05480197206253 L 1161 140.33692689857997 L 1162 140.6238305283423 L 1163 140.9155076216827 L 1164 141.21195285175764 L 1165 141.5131608046438 L 1166 141.8191259794374 L 1167 142.12984278835415 L 1168 142.44530555683173 L 1169 142.76550852363334 L 1170 143.0904458409526 L 1171 143.42011157452077 L 1172 143.75449970371483 L 1173 144.09360412166762 L 1174 144.43741863537923 L 1175 144.78593696583016 L 1176 145.13915274809602 L 1177 145.49705953146383 L 1178 145.8596507795495 L 1179 146.2269198704178 L 1180 146.5988600967026 L 1181 146.97546466572987 L 1182 147.35672669964157 L 1183 147.74263923552124 L 1184 148.13319522552118 L 1185 148.52838753699118 L 1186 148.92820895260874 L 1187 149.33265217051095 L 1188 149.74170980442767 L 1189 150.1553743838168 L 1190 150.57363835400022 L 1191 150.9964940763021 L 1192 151.42393382818835 L 1193 151.85594980340755 L 1194 152.29253411213364 L 1195 152.73367878110986 L 1196 153.17937575379452 L 1197 153.6296168905081 L 1198 154.08439396858174 L 1199 154.5436986825077 L 1200 155.00752264409087 L 1201 155.47585738260173 L 1202 155.94869434493154 L 1203 156.4260248957483 L 1204 156.90784031765432 L 1205 157.3941318113456 L 1206 157.88489049577262 L 1207 158.3801074083022 L 1208 158.87977350488146 L 1209 159.38387966020298 L 1210 159.89241666787132 L 1211 160.40537524057117 L 1212 160.92274601023718 L 1213 161.4445195282247 L 1214 161.9706862654826 L 1215 162.50123661272724 L 1216 163.03616088061793 L 1217 163.5754492999338 L 1218 164.11909202175246 L 1219 164.6670791176296 L 1220 165.2194005797805 L 1221 165.77604632126267 L 1222 166.33700617616014 L 1223 166.90226989976912 L 1224 167.47182716878507 L 1225 168.04566758149127 L 1226 168.62378065794874 L 1227 169.20615584018756 L 1228 169.7927824923999 L 1229 170.38364990113416 L 1230 170.9787472754904 L 1231 171.57806374731788 L 1232 172.1815883714131 L 1233 172.78931012571994 L 1234 173.4012179115309 L 1235 174.0173005536897 L 1236 174.6375468007955 L 1237 175.26194532540836 L 1238 175.89048472425603 L 1239 176.52315351844226 L 1240 177.1599401536565 L 1241 177.80083300038473 L 1242 178.44582035412208 L 1243 179.0948904355864 L 1244 179.74803139093348 L 1245 180.40523129197354 L 1246 181.06647813638895 L 1247 181.73175984795364 L 1248 182.4010642767534 L 1249 183.07437919940799 L 1250 183.75169231929428 L 1251 184.43299126677073 L 1252 185.11826359940346 L 1253 185.80749680219338 L 1254 186.50067828780482 L 1255 187.1977953967953 L 1256 187.89883539784685 L 1257 188.60378548799846 L 1258 189.31263279287995 L 1259 190.02536436694675 L 1260 190.74196719371696 L 1261 191.46242818600862 L 1262 192.18673418617877 L 1263 192.9148719663639 L 1264 193.64682822872135 L 1265 194.38258960567217 L 1266 195.12214266014553 L 1267 195.8654738858237 L 1268 196.61256970738904 L 1269 197.36341648077175 L 1270 198.11800049339917 L 1271 198.87630796444608 L 1272 199.63832504508653 L 1273 200.4040378187465 L 1274 201.17343230135842 L 1275 201.94649444161627 L 1276 202.72321012123228 L 1277 203.50356515519488 L 1278 204.28754529202746 L 1279 205.07513621404908 L 1280 205.86632353763557 L 1281 206.66109281348236 L 1282 207.45942952686843 L 1283 208.26131909792124 L 1284 209.06674688188315 L 1285 209.87569816937884 L 1286 210.68815818668375 L 1287 211.50411209599417 L 1288 212.32354499569817 L 1289 213.1464419206475 L 1290 213.97278784243122 L 1291 214.80256766964993 L 1292 215.6357662481915 L 1293 216.47236836150776 L 1294 217.31235873089247 L 1295 218.1557220157603 L 1296 219.0024428139269 L 1297 219.85250566189052 L 1298 220.70589503511394 L 1299 221.56259534830835 L 1300 222.42259095571794 L 1301 223.28586615140543 L 1302 224.15240516953907 L 1303 225.02219218468062 L 1304 225.8952113120742 L 1305 226.7714466079365 L 1306 227.65088206974795 L 1307 228.5335016365449 L 1308 229.41928918921312 L 1309 230.3082285507819 L 1310 231.20030348671972 L 1311 232.09549770523063 L 1312 232.99379485755185 L 1313 233.89517853825228 L 1314 234.79963228553208 L 1315 235.7071395815235 L 1316 236.6176838525923 L 1317 237.5312484696408 L 1318 238.4478167484106 L 1319 239.36737194978875 L 1320 240.28989728011234 L 1321 241.21537589147576 L 1322 242.14379088203793 L 1323 243.07512529633144 L 1324 244.00936212557193 L 1325 244.94648430796875 L 1326 245.8864747290366 L 1327 246.8293162219081 L 1328 247.7749915676473 L 1329 248.72348349556412 L 1330 249.67477468352976 L 1331 250.62884775829303 L 1332 251.58568529579773 L 1333 252.5452698215008 L 1334 253.5075838106914 L 1335 254.472609688811 L 1336 255.44032983177442 L 1337 256.41072656629166 L 1338 257.3837821701905 L 1339 258.35947887274045 L 1340 259.337798854977 L 1341 260.31872425002723 L 1342 261.3022371434361 L 1343 262.2883195734936 L 1344 263.2769535315625 L 1345 264.2681209624079 L 1346 265.26180376452623 L 1347 266.2579837904764 L 1348 267.25664284721086 L 1349 268.2577626964079 L 1350 269.26132505480507 L 1351 270.26731159453277 L 1352 271.2757039434488 L 1353 272.2864836854744 L 1354 273.2996323609302 L 1355 274.3151314668735 L 1356 275.3329624574359 L 1357 276.3531067441626 L 1358 277.37554569635114 L 1359 278.4002606413923 L 1360 279.4272328651108 L 1361 280.4564436121069 L 1362 281.4878740860993 L 1363 282.52150545026825 L 1364 283.5573188275995 L 1365 284.59529530122916 L 1366 285.63541591478906 L 1367 286.677661672753 L 1368 287.7220135407838 L 1369 288.7684524460806 L 1370 289.8169592777275 L 1371 290.86751488704243 L 1372 291.92010008792687 L 1373 292.9746956572163 L 1374 294.0312823350311 L 1375 295.0898408251287 L 1376 296.1503517952552 L 1377 297.21279587749916 L 1378 298.2771536686454 L 1379 299.3434057305286 L 1380 300.4115325903889 L 1381 301.48151474122744 L 1382 302.5533326421624 L 1383 303.62696671878604 L 1384 304.70239736352215 L 1385 305.77960493598414 L 1386 306.8585697633338 L 1387 307.9392721406403 L 1388 309.0216923312405 L 1389 310.105810567099 L 1390 311.1916070491694 L 1391 312.27906194775585 L 1392 313.368155402875 L 1393 314.45886752461894 L 1394 315.5511783935184 L 1395 316.6450680609064 L 1396 317.74051654928275 L 1397 318.8375038526787 L 1398 319.9360099370226 L 1399 321.0360147405054 L 1400 322.1374981739472 L 1401 323.24044012116445 L 1402 324.34482043933673 L 1403 325.450618959375 L 1404 326.55781548629 L 1405 327.6663897995608 L 1406 328.7763216535043 L 1407 329.88759077764473 L 1408 331.0001768770842 L 1409 332.11405963287314 L 1410 333.2292187023812 L 1411 334.34563371966914 L 1412 335.46328429586055 L 1413 336.5821500195142 L 1414 337.70221045699685 L 1415 338.82344515285644 L 1416 339.94583363019564 L 1417 341.06935539104586 L 1418 342.1939899167416 L 1419 343.319716668295 L 1420 344.4465150867712 L 1421 345.57436459366374 L 1422 346.7032445912702 L 1423 347.8331344630686 L 1424 348.9640135740937 L 1425 350.0958612713141 L 1426 351.2286568840093 L 1427 352.3623797241471 L 1428 353.4970090867615 L 1429 354.6325242503311 L 1430 355.7689044771569 L 1431 356.9061290137417 L 1432 358.04417709116876 L 1433 359.18302792548116 L 1434 360.3226607180615 L 1435 361.4630546560112 L 1436 362.60418891253147 L 1437 363.74604264730306 L 1438 364.8885950068671 L 1439 366.03182512500575 L 1440 367.1757121231235 L 1441 368.32023511062835 L 1442 369.46537318531324 L 1443 370.611105433738 L 1444 371.7574109316111 L 1445 372.904268744172 L 1446 374.05165792657317 L 1447 375.1995575242629 L 1448 376.3479465733677 L 1449 377.4968041010756 L 1450 378.64610912601864 L 1451 379.79584065865635 L 1452 380.9459777016591 L 1453 382.0964992502915 L 1454 383.24738429279597 L 1455 384.3986118107765 L 1456 385.5501607795826 L 1457 386.702010168693 L 1458 387.85413894210006 L 1459 389.00652605869385 L 1460 390.15915047264616 L 1461 391.3119911337953 L 1462 392.4650269880301 L 1463 393.6182369776747 L 1464 394.7716000418731 L 1465 395.9250951169737 L 1466 397.0787011369138 L 1467 398.2323970336049 L 1468 399.3861617373168 L 1469 400.5399741770628 L 1470 401.69381328098444 L 1471 402.8476579767363 L 1472 404.0014871918707 L 1473 405.1552798542229 L 1474 406.30901489229547 L 1475 407.46267123564354 L 1476 408.61622781525944 L 1477 409.7696635639573 L 1478 410.9229574167581 L 1479 412.0760883112742 L 1480 413.22903518809403 L 1481 414.38177699116676 L 1482 415.53429266818665 L 1483 416.68656117097777 L 1484 417.8385614558783 L 1485 418.99027248412466 L 1486 420.1416732222362 L 1487 421.29274264239876 L 1488 422.4434597228491 L 1489 423.5938034482588 L 1490 424.7437528101177 L 1491 425.89328680711805 L 1492 427.04238444553795 L 1493 428.1910247396239 L 1494 429.3391867119757 L 1495 430.48684939392814 L 1496 431.6339918259347 L 1497 432.78059305794983 L 1498 433.9266321498121 L 1499 435.07208817162615 L 1500 436.2169402041452 L 1501 437.36116733915287 L 1502 438.50474867984536 L 1503 439.6476633412128 L 1504 440.7898904504207 L 1505 441.9314091471914 L 1506 443.0721985841846 L 1507 444.21223792737845 L 1508 445.35150635644993 L 1509 446.48998306515506 L 1510 447.6276472617089 L 1511 448.7644781691653 L 1512 449.9004550257962 L 1513 451.03555708547105 L 1514 452.1697636180355 L 1515 453.30305390969005 L 1516 454.43540726336823 L 1517 455.5668029991148 L 1518 456.6972204544634 L 1519 457.8266389848136 L 1520 458.9550379638083 L 1521 460.0823967837102 L 1522 461.2086948557783 L 1523 462.3339116106438 L 1524 463.4580264986858 L 1525 464.5810189904065 L 1526 465.70286857680645 L 1527 466.8235547697585 L 1528 467.94305710238274 L 1529 469.06135512941955 L 1530 470.1784284276035 L 1531 471.294256596036 L 1532 472.4088192565583 L 1533 473.52209605412304 L 1534 474.6340666571665 L 1535 475.7447107579799 L 1536 476.85400807307974 L 1537 477.96193834357894 L 1538 479.06848133555644 L 1539 480.1736168404267" stroke-linecap="round" stroke-linejoin="round" stroke-miterlimit="10" stroke-width="12"/></g></svg>